<?xml version="1.0" encoding="UTF-8" standalone="no"?><svg xmlns="http://www.w3.org/2000/svg" xmlns:xlink="http://www.w3.org/1999/xlink" contentScriptType="application/ecmascript" contentStyleType="text/css" height="417.5px" preserveAspectRatio="none" style="width:912px;height:417px;background:#FFFFFF;" version="1.1" viewBox="0 0 912 417" width="912.5px" zoomAndPan="magnify"><defs><filter height="300%" id="f1831pooqwf2gm" width="300%" x="-1" y="-1"><feGaussianBlur result="blurOut" stdDeviation="1.0"/><feColorMatrix in="blurOut" result="blurOut2" type="matrix" values="0 0 0 0 0 0 0 0 0 0 0 0 0 0 0 0 0 0 .4 0"/><feOffset dx="2.0" dy="2.0" in="blurOut2" result="blurOut3"/><feBlend in="SourceGraphic" in2="blurOut3" mode="normal"/></filter></defs><g><!--MD5=[35f5de57368f45b8cd411e4aa81e2824]
cluster Phaser.Physics.Arcade--><polygon fill="#FFFFFF" filter="url(#f1831pooqwf2gm)" points="283.25,92.5,365.75,92.5,369.25,104.3047,370.75,104.3047,370.75,134.5,283.25,134.5,283.25,92.5" style="stroke:#000000;stroke-width:0.75;"/><line style="stroke:#000000;stroke-width:0.75;" x1="283.25" x2="369.25" y1="104.3047" y2="104.3047"/><text fill="#000000" font-family="sans-serif" font-size="7" font-weight="bold" lengthAdjust="spacing" textLength="79.5" x="285.25" y="100.7666">Phaser.Physics.Arcade</text><!--MD5=[70f507dfbd27a855875b85f91f6fcc4c]
cluster Phaser.GameObjects--><polygon fill="#FFFFFF" filter="url(#f1831pooqwf2gm)" points="686.75,92.5,763.25,92.5,766.75,104.3047,768.25,104.3047,768.25,134.5,686.75,134.5,686.75,92.5" style="stroke:#000000;stroke-width:0.75;"/><line style="stroke:#000000;stroke-width:0.75;" x1="686.75" x2="766.75" y1="104.3047" y2="104.3047"/><text fill="#000000" font-family="sans-serif" font-size="7" font-weight="bold" lengthAdjust="spacing" textLength="73.5" x="688.75" y="100.7666">Phaser.GameObjects</text><!--MD5=[53d67c125451053aed17c82f519ac2f3]
cluster Phaser--><polygon fill="#FFFFFF" filter="url(#f1831pooqwf2gm)" points="628.75,3,656.25,3,659.75,14.8047,678.75,14.8047,678.75,45,628.75,45,628.75,3" style="stroke:#000000;stroke-width:0.75;"/><line style="stroke:#000000;stroke-width:0.75;" x1="628.75" x2="659.75" y1="14.8047" y2="14.8047"/><text fill="#000000" font-family="sans-serif" font-size="7" font-weight="bold" lengthAdjust="spacing" textLength="24.5" x="630.75" y="11.2666">Phaser</text><!--MD5=[23111e7a7d708aacb95bb048d8059f98]
class Phaser.Physics.Arcade.Sprite--><rect fill="#FEFECE" filter="url(#f1831pooqwf2gm)" height="16" id="Phaser.Physics.Arcade.Sprite" style="stroke:#A80036;stroke-width:0.75;" width="32" x="310.75" y="110.5"/><ellipse cx="318.25" cy="118.5" fill="#ADD1B2" rx="5.5" ry="5.5" style="stroke:#A80036;stroke-width:0.5;"/><path d="M319.25,116.75 Q319.3516,116.5 319.4688,116.375 Q319.5859,116.25 319.7188,116.25 Q319.9531,116.25 320.1016,116.3906 Q320.25,116.5313 320.25,116.8594 L320.25,117.6406 Q320.25,117.9688 320.1094,118.1094 Q319.9688,118.25 319.75,118.25 Q319.5547,118.25 319.4297,118.1641 Q319.3047,118.0781 319.25,117.8516 Q319.2266,117.6953 319.1406,117.6094 Q318.9844,117.4453 318.7031,117.3516 Q318.4219,117.25 318.1406,117.25 Q317.7891,117.25 317.4922,117.3906 Q317.2031,117.5313 316.9766,117.8438 Q316.75,118.1563 316.75,118.5859 L316.75,119.0469 Q316.75,119.5625 317.1719,119.9063 Q317.5938,120.25 318.3438,120.25 Q318.7891,120.25 319.1016,120.1484 Q319.2813,120.0938 319.4844,119.9141 Q319.6172,119.8125 319.6875,119.7813 Q319.7578,119.75 319.8438,119.75 Q320.0078,119.75 320.125,119.8828 Q320.25,120.0078 320.25,120.1875 Q320.25,120.3594 320.0781,120.5625 Q319.8281,120.8594 319.4297,121.0234 Q318.9063,121.25 318.2656,121.25 Q317.5156,121.25 316.9141,120.9531 Q316.4297,120.7188 316.0859,120.2109 Q315.75,119.7031 315.75,119.1016 L315.75,118.5547 Q315.75,117.9297 316.0469,117.3828 Q316.3516,116.8359 316.875,116.5469 Q317.4063,116.25 318,116.25 Q318.3594,116.25 318.6719,116.375 Q318.9844,116.5 319.25,116.75 Z " fill="#000000"/><text fill="#000000" font-family="sans-serif" font-size="6" lengthAdjust="spacing" textLength="16" x="325.25" y="120.9551">Sprite</text><!--MD5=[5e84e11d54fb4747dca6028d4138c5d9]
class Phaser.GameObjects.Rectangle--><rect fill="#FEFECE" filter="url(#f1831pooqwf2gm)" height="16" id="Phaser.GameObjects.Rectangle" style="stroke:#A80036;stroke-width:0.75;" width="44" x="709.25" y="110.5"/><ellipse cx="716.75" cy="118.5" fill="#ADD1B2" rx="5.5" ry="5.5" style="stroke:#A80036;stroke-width:0.5;"/><path d="M717.75,116.75 Q717.8516,116.5 717.9688,116.375 Q718.0859,116.25 718.2188,116.25 Q718.4531,116.25 718.6016,116.3906 Q718.75,116.5313 718.75,116.8594 L718.75,117.6406 Q718.75,117.9688 718.6094,118.1094 Q718.4688,118.25 718.25,118.25 Q718.0547,118.25 717.9297,118.1641 Q717.8047,118.0781 717.75,117.8516 Q717.7266,117.6953 717.6406,117.6094 Q717.4844,117.4453 717.2031,117.3516 Q716.9219,117.25 716.6406,117.25 Q716.2891,117.25 715.9922,117.3906 Q715.7031,117.5313 715.4766,117.8438 Q715.25,118.1563 715.25,118.5859 L715.25,119.0469 Q715.25,119.5625 715.6719,119.9063 Q716.0938,120.25 716.8438,120.25 Q717.2891,120.25 717.6016,120.1484 Q717.7813,120.0938 717.9844,119.9141 Q718.1172,119.8125 718.1875,119.7813 Q718.2578,119.75 718.3438,119.75 Q718.5078,119.75 718.625,119.8828 Q718.75,120.0078 718.75,120.1875 Q718.75,120.3594 718.5781,120.5625 Q718.3281,120.8594 717.9297,121.0234 Q717.4063,121.25 716.7656,121.25 Q716.0156,121.25 715.4141,120.9531 Q714.9297,120.7188 714.5859,120.2109 Q714.25,119.7031 714.25,119.1016 L714.25,118.5547 Q714.25,117.9297 714.5469,117.3828 Q714.8516,116.8359 715.375,116.5469 Q715.9063,116.25 716.5,116.25 Q716.8594,116.25 717.1719,116.375 Q717.4844,116.5 717.75,116.75 Z " fill="#000000"/><text fill="#000000" font-family="sans-serif" font-size="6" lengthAdjust="spacing" textLength="28" x="723.75" y="120.9551">Rectangle</text><!--MD5=[2aff030964f432944977b0167c2d3c39]
class Phaser.Scene--><rect fill="#FEFECE" filter="url(#f1831pooqwf2gm)" height="16" id="Phaser.Scene" style="stroke:#A80036;stroke-width:0.75;" width="33.5" x="637" y="21"/><ellipse cx="644.5" cy="29" fill="#ADD1B2" rx="5.5" ry="5.5" style="stroke:#A80036;stroke-width:0.5;"/><path d="M645.5,27.25 Q645.6016,27 645.7188,26.875 Q645.8359,26.75 645.9688,26.75 Q646.2031,26.75 646.3516,26.8906 Q646.5,27.0313 646.5,27.3594 L646.5,28.1406 Q646.5,28.4688 646.3594,28.6094 Q646.2188,28.75 646,28.75 Q645.8047,28.75 645.6797,28.6641 Q645.5547,28.5781 645.5,28.3516 Q645.4766,28.1953 645.3906,28.1094 Q645.2344,27.9453 644.9531,27.8516 Q644.6719,27.75 644.3906,27.75 Q644.0391,27.75 643.7422,27.8906 Q643.4531,28.0313 643.2266,28.3438 Q643,28.6563 643,29.0859 L643,29.5469 Q643,30.0625 643.4219,30.4063 Q643.8438,30.75 644.5938,30.75 Q645.0391,30.75 645.3516,30.6484 Q645.5313,30.5938 645.7344,30.4141 Q645.8672,30.3125 645.9375,30.2813 Q646.0078,30.25 646.0938,30.25 Q646.2578,30.25 646.375,30.3828 Q646.5,30.5078 646.5,30.6875 Q646.5,30.8594 646.3281,31.0625 Q646.0781,31.3594 645.6797,31.5234 Q645.1563,31.75 644.5156,31.75 Q643.7656,31.75 643.1641,31.4531 Q642.6797,31.2188 642.3359,30.7109 Q642,30.2031 642,29.6016 L642,29.0547 Q642,28.4297 642.2969,27.8828 Q642.6016,27.3359 643.125,27.0469 Q643.6563,26.75 644.25,26.75 Q644.6094,26.75 644.9219,26.875 Q645.2344,27 645.5,27.25 Z " fill="#000000"/><text fill="#000000" font-family="sans-serif" font-size="6" lengthAdjust="spacing" textLength="17.5" x="651.5" y="31.4551">Scene</text><!--MD5=[cd779e4ecec89e6a9639523ace827fcd]
class Pnj--><rect codeLine="3" fill="#FEFECE" filter="url(#f1831pooqwf2gm)" height="86.2617" id="Pnj" style="stroke:#A80036;stroke-width:0.75;" width="331" x="161.25" y="199"/><ellipse cx="320.125" cy="207" fill="#ADD1B2" rx="5.5" ry="5.5" style="stroke:#A80036;stroke-width:0.5;"/><path d="M321.125,205.25 Q321.2266,205 321.3438,204.875 Q321.4609,204.75 321.5938,204.75 Q321.8281,204.75 321.9766,204.8906 Q322.125,205.0313 322.125,205.3594 L322.125,206.1406 Q322.125,206.4688 321.9844,206.6094 Q321.8438,206.75 321.625,206.75 Q321.4297,206.75 321.3047,206.6641 Q321.1797,206.5781 321.125,206.3516 Q321.1016,206.1953 321.0156,206.1094 Q320.8594,205.9453 320.5781,205.8516 Q320.2969,205.75 320.0156,205.75 Q319.6641,205.75 319.3672,205.8906 Q319.0781,206.0313 318.8516,206.3438 Q318.625,206.6563 318.625,207.0859 L318.625,207.5469 Q318.625,208.0625 319.0469,208.4063 Q319.4688,208.75 320.2188,208.75 Q320.6641,208.75 320.9766,208.6484 Q321.1563,208.5938 321.3594,208.4141 Q321.4922,208.3125 321.5625,208.2813 Q321.6328,208.25 321.7188,208.25 Q321.8828,208.25 322,208.3828 Q322.125,208.5078 322.125,208.6875 Q322.125,208.8594 321.9531,209.0625 Q321.7031,209.3594 321.3047,209.5234 Q320.7813,209.75 320.1406,209.75 Q319.3906,209.75 318.7891,209.4531 Q318.3047,209.2188 317.9609,208.7109 Q317.625,208.2031 317.625,207.6016 L317.625,207.0547 Q317.625,206.4297 317.9219,205.8828 Q318.2266,205.3359 318.75,205.0469 Q319.2813,204.75 319.875,204.75 Q320.2344,204.75 320.5469,204.875 Q320.8594,205 321.125,205.25 Z " fill="#000000"/><text fill="#000000" font-family="sans-serif" font-size="6" lengthAdjust="spacing" textLength="9" x="330.375" y="209.4551">Pnj</text><line style="stroke:#A80036;stroke-width:0.75;" x1="161.75" x2="491.75" y1="215" y2="215"/><rect fill="none" height="3" style="stroke:#C82930;stroke-width:0.5;" width="3" x="165.25" y="219"/><text fill="#000000" font-family="sans-serif" font-size="5.5" lengthAdjust="spacing" textLength="43" x="171.25" y="222.7095">dialogText : String</text><rect fill="none" height="3" style="stroke:#C82930;stroke-width:0.5;" width="3" x="165.25" y="225.918"/><text fill="#000000" font-family="sans-serif" font-size="5.5" lengthAdjust="spacing" textLength="53.5" x="171.25" y="229.6274">scene : Phaser.Scene</text><rect fill="none" height="3" style="stroke:#C82930;stroke-width:0.5;" width="3" x="165.25" y="232.8359"/><text fill="#000000" font-family="sans-serif" font-size="5.5" lengthAdjust="spacing" textLength="40" x="171.25" y="236.5454">choice : Boolean</text><rect fill="none" height="3" style="stroke:#C82930;stroke-width:0.5;" width="3" x="165.25" y="239.7539"/><text fill="#000000" font-family="sans-serif" font-size="5.5" lengthAdjust="spacing" textLength="28.5" x="171.25" y="243.4634">w_type : int</text><rect fill="none" height="3" style="stroke:#C82930;stroke-width:0.5;" width="3" x="165.25" y="246.6719"/><text fill="#000000" font-family="sans-serif" font-size="5.5" lengthAdjust="spacing" textLength="35" x="171.25" y="250.3813">d_type : String</text><rect fill="none" height="3" style="stroke:#C82930;stroke-width:0.5;" width="3" x="165.25" y="253.5898"/><text fill="#000000" font-family="sans-serif" font-size="5.5" lengthAdjust="spacing" textLength="34.5" x="171.25" y="257.2993">player : Player</text><line style="stroke:#A80036;stroke-width:0.75;" x1="161.75" x2="491.75" y1="260.5078" y2="260.5078"/><ellipse cx="166.75" cy="266.0078" fill="#84BE84" rx="1.5" ry="1.5" style="stroke:#038048;stroke-width:0.5;"/><text fill="#000000" font-family="sans-serif" font-size="5.5" lengthAdjust="spacing" textLength="318" x="171.25" y="268.2173">Pnj(scene: Phaser.Scene, x : int, y : int, texture : string, dialog : string, choice : Boolean, w_type : int, d_type : String, player : Player)</text><ellipse cx="166.75" cy="272.9258" fill="#84BE84" rx="1.5" ry="1.5" style="stroke:#038048;stroke-width:0.5;"/><text fill="#000000" font-family="sans-serif" font-size="5.5" lengthAdjust="spacing" textLength="148.5" x="171.25" y="275.1353">(static) loadAssets(scene: Phaser.Scene, type : String) : void</text><ellipse cx="166.75" cy="279.8438" fill="#84BE84" rx="1.5" ry="1.5" style="stroke:#038048;stroke-width:0.5;"/><text fill="#000000" font-family="sans-serif" font-size="5.5" lengthAdjust="spacing" textLength="35" x="171.25" y="282.0532">update() : void</text><!--MD5=[896c4ccb066eb26badb539a3d0aacda3]
class Bubble--><rect codeLine="16" fill="#FEFECE" filter="url(#f1831pooqwf2gm)" height="86.2617" id="Bubble" style="stroke:#A80036;stroke-width:0.75;" width="291.5" x="3.5" y="324.5"/><ellipse cx="137.375" cy="332.5" fill="#ADD1B2" rx="5.5" ry="5.5" style="stroke:#A80036;stroke-width:0.5;"/><path d="M138.375,330.75 Q138.4766,330.5 138.5938,330.375 Q138.7109,330.25 138.8438,330.25 Q139.0781,330.25 139.2266,330.3906 Q139.375,330.5313 139.375,330.8594 L139.375,331.6406 Q139.375,331.9688 139.2344,332.1094 Q139.0938,332.25 138.875,332.25 Q138.6797,332.25 138.5547,332.1641 Q138.4297,332.0781 138.375,331.8516 Q138.3516,331.6953 138.2656,331.6094 Q138.1094,331.4453 137.8281,331.3516 Q137.5469,331.25 137.2656,331.25 Q136.9141,331.25 136.6172,331.3906 Q136.3281,331.5313 136.1016,331.8438 Q135.875,332.1563 135.875,332.5859 L135.875,333.0469 Q135.875,333.5625 136.2969,333.9063 Q136.7188,334.25 137.4688,334.25 Q137.9141,334.25 138.2266,334.1484 Q138.4063,334.0938 138.6094,333.9141 Q138.7422,333.8125 138.8125,333.7813 Q138.8828,333.75 138.9688,333.75 Q139.1328,333.75 139.25,333.8828 Q139.375,334.0078 139.375,334.1875 Q139.375,334.3594 139.2031,334.5625 Q138.9531,334.8594 138.5547,335.0234 Q138.0313,335.25 137.3906,335.25 Q136.6406,335.25 136.0391,334.9531 Q135.5547,334.7188 135.2109,334.2109 Q134.875,333.7031 134.875,333.1016 L134.875,332.5547 Q134.875,331.9297 135.1719,331.3828 Q135.4766,330.8359 136,330.5469 Q136.5313,330.25 137.125,330.25 Q137.4844,330.25 137.7969,330.375 Q138.1094,330.5 138.375,330.75 Z " fill="#000000"/><text fill="#000000" font-family="sans-serif" font-size="6" lengthAdjust="spacing" textLength="19.5" x="147.625" y="334.9551">Bubble</text><line style="stroke:#A80036;stroke-width:0.75;" x1="4" x2="294.5" y1="340.5" y2="340.5"/><rect fill="none" height="3" style="stroke:#C82930;stroke-width:0.5;" width="3" x="7.5" y="344.5"/><text fill="#000000" font-family="sans-serif" font-size="5.5" lengthAdjust="spacing" textLength="53.5" x="13.5" y="348.2095">scene : Phaser.Scene</text><rect fill="none" height="3" style="stroke:#C82930;stroke-width:0.5;" width="3" x="7.5" y="351.418"/><text fill="#000000" font-family="sans-serif" font-size="5.5" lengthAdjust="spacing" textLength="18.5" x="13.5" y="355.1274">pnj : Pnj</text><rect fill="none" height="3" style="stroke:#C82930;stroke-width:0.5;" width="3" x="7.5" y="358.3359"/><text fill="#000000" font-family="sans-serif" font-size="5.5" lengthAdjust="spacing" textLength="44.5" x="13.5" y="362.0454">isChoice : Boolean</text><rect fill="none" height="3" style="stroke:#C82930;stroke-width:0.5;" width="3" x="7.5" y="365.2539"/><text fill="#000000" font-family="sans-serif" font-size="5.5" lengthAdjust="spacing" textLength="31" x="13.5" y="368.9634">scenario : int</text><rect fill="none" height="3" style="stroke:#C82930;stroke-width:0.5;" width="3" x="7.5" y="372.1719"/><text fill="#000000" font-family="sans-serif" font-size="5.5" lengthAdjust="spacing" textLength="32" x="13.5" y="375.8813">death : String</text><rect fill="none" height="3" style="stroke:#C82930;stroke-width:0.5;" width="3" x="7.5" y="379.0898"/><text fill="#000000" font-family="sans-serif" font-size="5.5" lengthAdjust="spacing" textLength="34.5" x="13.5" y="382.7993">player : Player</text><line style="stroke:#A80036;stroke-width:0.75;" x1="4" x2="294.5" y1="386.0078" y2="386.0078"/><ellipse cx="9" cy="391.5078" fill="#84BE84" rx="1.5" ry="1.5" style="stroke:#038048;stroke-width:0.5;"/><text fill="#000000" font-family="sans-serif" font-size="5.5" lengthAdjust="spacing" textLength="278.5" x="13.5" y="393.7173">Bubble(scene: Phaser.Scene, pnj : Pnj, text : String, isChoice : Boolean, scenario : int, death : String, player : Player)</text><ellipse cx="9" cy="398.4258" fill="#84BE84" rx="1.5" ry="1.5" style="stroke:#038048;stroke-width:0.5;"/><text fill="#000000" font-family="sans-serif" font-size="5.5" lengthAdjust="spacing" textLength="63" x="13.5" y="400.6353">selectOption(option) : void</text><ellipse cx="9" cy="405.3438" fill="#84BE84" rx="1.5" ry="1.5" style="stroke:#038048;stroke-width:0.5;"/><text fill="#000000" font-family="sans-serif" font-size="5.5" lengthAdjust="spacing" textLength="37" x="13.5" y="407.5532">destroy() : void</text><!--MD5=[2cb47ba637a0d19583e6199456f6ad0b]
class Player--><rect codeLine="31" fill="#FEFECE" filter="url(#f1831pooqwf2gm)" height="65.5078" id="Player" style="stroke:#A80036;stroke-width:0.75;" width="124" x="509.75" y="209.5"/><ellipse cx="561.125" cy="217.5" fill="#ADD1B2" rx="5.5" ry="5.5" style="stroke:#A80036;stroke-width:0.5;"/><path d="M562.125,215.75 Q562.2266,215.5 562.3438,215.375 Q562.4609,215.25 562.5938,215.25 Q562.8281,215.25 562.9766,215.3906 Q563.125,215.5313 563.125,215.8594 L563.125,216.6406 Q563.125,216.9688 562.9844,217.1094 Q562.8438,217.25 562.625,217.25 Q562.4297,217.25 562.3047,217.1641 Q562.1797,217.0781 562.125,216.8516 Q562.1016,216.6953 562.0156,216.6094 Q561.8594,216.4453 561.5781,216.3516 Q561.2969,216.25 561.0156,216.25 Q560.6641,216.25 560.3672,216.3906 Q560.0781,216.5313 559.8516,216.8438 Q559.625,217.1563 559.625,217.5859 L559.625,218.0469 Q559.625,218.5625 560.0469,218.9063 Q560.4688,219.25 561.2188,219.25 Q561.6641,219.25 561.9766,219.1484 Q562.1563,219.0938 562.3594,218.9141 Q562.4922,218.8125 562.5625,218.7813 Q562.6328,218.75 562.7188,218.75 Q562.8828,218.75 563,218.8828 Q563.125,219.0078 563.125,219.1875 Q563.125,219.3594 562.9531,219.5625 Q562.7031,219.8594 562.3047,220.0234 Q561.7813,220.25 561.1406,220.25 Q560.3906,220.25 559.7891,219.9531 Q559.3047,219.7188 558.9609,219.2109 Q558.625,218.7031 558.625,218.1016 L558.625,217.5547 Q558.625,216.9297 558.9219,216.3828 Q559.2266,215.8359 559.75,215.5469 Q560.2813,215.25 560.875,215.25 Q561.2344,215.25 561.5469,215.375 Q561.8594,215.5 562.125,215.75 Z " fill="#000000"/><text fill="#000000" font-family="sans-serif" font-size="6" lengthAdjust="spacing" textLength="17" x="571.375" y="219.9551">Player</text><line style="stroke:#A80036;stroke-width:0.75;" x1="510.25" x2="633.25" y1="225.5" y2="225.5"/><rect fill="none" height="3" style="stroke:#C82930;stroke-width:0.5;" width="3" x="513.75" y="229.5"/><text fill="#000000" font-family="sans-serif" font-size="5.5" lengthAdjust="spacing" textLength="52" x="519.75" y="233.2095">scene: Phaser.Scene</text><line style="stroke:#A80036;stroke-width:0.75;" x1="510.25" x2="633.25" y1="236.418" y2="236.418"/><ellipse cx="515.25" cy="241.918" fill="#84BE84" rx="1.5" ry="1.5" style="stroke:#038048;stroke-width:0.5;"/><text fill="#000000" font-family="sans-serif" font-size="5.5" lengthAdjust="spacing" textLength="110.5" x="519.75" y="244.1274">constructor(scene: Phaser.Scene, x: number,</text><text fill="#000000" font-family="sans-serif" font-size="5.5" lengthAdjust="spacing" textLength="94.5" x="519.75" y="251.0454">y: number texture: string, frame: string)</text><ellipse cx="515.25" cy="255.7539" fill="#84BE84" rx="1.5" ry="1.5" style="stroke:#038048;stroke-width:0.5;"/><text fill="#000000" font-family="sans-serif" font-size="5.5" lengthAdjust="spacing" textLength="111" x="519.75" y="257.9634">static loadAssets(scene: Phaser.Scene): void</text><ellipse cx="515.25" cy="262.6719" fill="#84BE84" rx="1.5" ry="1.5" style="stroke:#038048;stroke-width:0.5;"/><text fill="#000000" font-family="sans-serif" font-size="5.5" lengthAdjust="spacing" textLength="52.5" x="519.75" y="264.8813">move(dir: string): void</text><ellipse cx="515.25" cy="269.5898" fill="#84BE84" rx="1.5" ry="1.5" style="stroke:#038048;stroke-width:0.5;"/><text fill="#000000" font-family="sans-serif" font-size="5.5" lengthAdjust="spacing" textLength="27.5" x="519.75" y="271.7993">stop(): void</text><!--MD5=[548d2f837bb2a6c07d001f2edaf43220]
class HitBox--><rect codeLine="39" fill="#FEFECE" filter="url(#f1831pooqwf2gm)" height="44.7539" id="HitBox" style="stroke:#A80036;stroke-width:0.75;" width="159.5" x="651.5" y="219.75"/><ellipse cx="720.375" cy="227.75" fill="#ADD1B2" rx="5.5" ry="5.5" style="stroke:#A80036;stroke-width:0.5;"/><path d="M721.375,226 Q721.4766,225.75 721.5938,225.625 Q721.7109,225.5 721.8438,225.5 Q722.0781,225.5 722.2266,225.6406 Q722.375,225.7813 722.375,226.1094 L722.375,226.8906 Q722.375,227.2188 722.2344,227.3594 Q722.0938,227.5 721.875,227.5 Q721.6797,227.5 721.5547,227.4141 Q721.4297,227.3281 721.375,227.1016 Q721.3516,226.9453 721.2656,226.8594 Q721.1094,226.6953 720.8281,226.6016 Q720.5469,226.5 720.2656,226.5 Q719.9141,226.5 719.6172,226.6406 Q719.3281,226.7813 719.1016,227.0938 Q718.875,227.4063 718.875,227.8359 L718.875,228.2969 Q718.875,228.8125 719.2969,229.1563 Q719.7188,229.5 720.4688,229.5 Q720.9141,229.5 721.2266,229.3984 Q721.4063,229.3438 721.6094,229.1641 Q721.7422,229.0625 721.8125,229.0313 Q721.8828,229 721.9688,229 Q722.1328,229 722.25,229.1328 Q722.375,229.2578 722.375,229.4375 Q722.375,229.6094 722.2031,229.8125 Q721.9531,230.1094 721.5547,230.2734 Q721.0313,230.5 720.3906,230.5 Q719.6406,230.5 719.0391,230.2031 Q718.5547,229.9688 718.2109,229.4609 Q717.875,228.9531 717.875,228.3516 L717.875,227.8047 Q717.875,227.1797 718.1719,226.6328 Q718.4766,226.0859 719,225.7969 Q719.5313,225.5 720.125,225.5 Q720.4844,225.5 720.7969,225.625 Q721.1094,225.75 721.375,226 Z " fill="#000000"/><text fill="#000000" font-family="sans-serif" font-size="6" lengthAdjust="spacing" textLength="17.5" x="730.625" y="230.2051">HitBox</text><line style="stroke:#A80036;stroke-width:0.75;" x1="652" x2="810.5" y1="235.75" y2="235.75"/><rect fill="none" height="3" style="stroke:#C82930;stroke-width:0.5;" width="3" x="655.5" y="239.75"/><text fill="#000000" font-family="sans-serif" font-size="5.5" lengthAdjust="spacing" textLength="52" x="661.5" y="243.4595">scene: Phaser.Scene</text><line style="stroke:#A80036;stroke-width:0.75;" x1="652" x2="810.5" y1="246.668" y2="246.668"/><ellipse cx="657" cy="252.168" fill="#84BE84" rx="1.5" ry="1.5" style="stroke:#038048;stroke-width:0.5;"/><text fill="#000000" font-family="sans-serif" font-size="5.5" lengthAdjust="spacing" textLength="137.5" x="661.5" y="254.3774">constructor(scene: Phaser.Scene, x: number, y: number,</text><text fill="#000000" font-family="sans-serif" font-size="5.5" lengthAdjust="spacing" textLength="146.5" x="661.5" y="261.2954">width: number, height: number,color: number, alpha: number)</text><!--MD5=[ca7580d6248ea961b5661b926d4e7910]
class MainScene--><rect codeLine="46" fill="#FEFECE" filter="url(#f1831pooqwf2gm)" height="100.0977" id="MainScene" style="stroke:#A80036;stroke-width:0.75;" width="49.5" x="629" y="68.5"/><ellipse cx="637.85" cy="76.5" fill="#ADD1B2" rx="5.5" ry="5.5" style="stroke:#A80036;stroke-width:0.5;"/><path d="M638.85,74.75 Q638.9516,74.5 639.0688,74.375 Q639.1859,74.25 639.3188,74.25 Q639.5531,74.25 639.7016,74.3906 Q639.85,74.5313 639.85,74.8594 L639.85,75.6406 Q639.85,75.9688 639.7094,76.1094 Q639.5688,76.25 639.35,76.25 Q639.1547,76.25 639.0297,76.1641 Q638.9047,76.0781 638.85,75.8516 Q638.8266,75.6953 638.7406,75.6094 Q638.5844,75.4453 638.3031,75.3516 Q638.0219,75.25 637.7406,75.25 Q637.3891,75.25 637.0922,75.3906 Q636.8031,75.5313 636.5766,75.8438 Q636.35,76.1563 636.35,76.5859 L636.35,77.0469 Q636.35,77.5625 636.7719,77.9063 Q637.1938,78.25 637.9438,78.25 Q638.3891,78.25 638.7016,78.1484 Q638.8813,78.0938 639.0844,77.9141 Q639.2172,77.8125 639.2875,77.7813 Q639.3578,77.75 639.4438,77.75 Q639.6078,77.75 639.725,77.8828 Q639.85,78.0078 639.85,78.1875 Q639.85,78.3594 639.6781,78.5625 Q639.4281,78.8594 639.0297,79.0234 Q638.5063,79.25 637.8656,79.25 Q637.1156,79.25 636.5141,78.9531 Q636.0297,78.7188 635.6859,78.2109 Q635.35,77.7031 635.35,77.1016 L635.35,76.5547 Q635.35,75.9297 635.6469,75.3828 Q635.9516,74.8359 636.475,74.5469 Q637.0063,74.25 637.6,74.25 Q637.9594,74.25 638.2719,74.375 Q638.5844,74.5 638.85,74.75 Z " fill="#000000"/><text fill="#000000" font-family="sans-serif" font-size="6" lengthAdjust="spacing" textLength="30.5" x="645.15" y="78.9551">MainScene</text><line style="stroke:#A80036;stroke-width:0.75;" x1="629.5" x2="678" y1="84.5" y2="84.5"/><rect fill="none" height="3" style="stroke:#C82930;stroke-width:0.5;" width="3" x="633" y="88.5"/><text fill="#000000" font-family="sans-serif" font-size="5.5" lengthAdjust="spacing" textLength="33" x="639" y="92.2095">player: Player</text><rect fill="none" height="3" style="stroke:#C82930;stroke-width:0.5;" width="3" x="633" y="95.418"/><text fill="#000000" font-family="sans-serif" font-size="5.5" lengthAdjust="spacing" textLength="17" x="639" y="99.1274">pnj: Pnj</text><rect fill="none" height="3" style="stroke:#C82930;stroke-width:0.5;" width="3" x="633" y="102.3359"/><text fill="#000000" font-family="sans-serif" font-size="5.5" lengthAdjust="spacing" textLength="20" x="639" y="106.0454">pnj2: Pnj</text><rect fill="none" height="3" style="stroke:#C82930;stroke-width:0.5;" width="3" x="633" y="109.2539"/><text fill="#000000" font-family="sans-serif" font-size="5.5" lengthAdjust="spacing" textLength="20" x="639" y="112.9634">pnj3: Pnj</text><rect fill="none" height="3" style="stroke:#C82930;stroke-width:0.5;" width="3" x="633" y="116.1719"/><text fill="#000000" font-family="sans-serif" font-size="5.5" lengthAdjust="spacing" textLength="20" x="639" y="119.8813">pnj4: Pnj</text><rect fill="none" height="3" style="stroke:#C82930;stroke-width:0.5;" width="3" x="633" y="123.0898"/><text fill="#000000" font-family="sans-serif" font-size="5.5" lengthAdjust="spacing" textLength="20" x="639" y="126.7993">pnj5: Pnj</text><rect fill="none" height="3" style="stroke:#C82930;stroke-width:0.5;" width="3" x="633" y="130.0078"/><text fill="#000000" font-family="sans-serif" font-size="5.5" lengthAdjust="spacing" textLength="33.5" x="639" y="133.7173">hitBox: HitBox</text><rect fill="none" height="3" style="stroke:#C82930;stroke-width:0.5;" width="3" x="633" y="136.9258"/><text fill="#000000" font-family="sans-serif" font-size="5.5" lengthAdjust="spacing" textLength="36.5" x="639" y="140.6353">hitBox2: HitBox</text><rect fill="none" height="3" style="stroke:#C82930;stroke-width:0.5;" width="3" x="633" y="143.8438"/><text fill="#000000" font-family="sans-serif" font-size="5.5" lengthAdjust="spacing" textLength="36.5" x="639" y="147.5532">hitBox3: HitBox</text><rect fill="none" height="3" style="stroke:#C82930;stroke-width:0.5;" width="3" x="633" y="150.7617"/><text fill="#000000" font-family="sans-serif" font-size="5.5" lengthAdjust="spacing" textLength="36.5" x="639" y="154.4712">hitBox4: HitBox</text><line style="stroke:#A80036;stroke-width:0.75;" x1="629.5" x2="678" y1="157.6797" y2="157.6797"/><ellipse cx="634.5" cy="163.1797" fill="#84BE84" rx="1.5" ry="1.5" style="stroke:#038048;stroke-width:0.5;"/><text fill="#000000" font-family="sans-serif" font-size="5.5" lengthAdjust="spacing" textLength="30.5" x="639" y="165.3892">MainScene()</text><!--MD5=[3b92467b2f82318edce5fe9f20c3b3ed]
class GameOverScene--><rect codeLine="59" fill="#FEFECE" filter="url(#f1831pooqwf2gm)" height="47.6719" id="GameOverScene" style="stroke:#A80036;stroke-width:0.75;" width="63" x="776.25" y="94.75"/><ellipse cx="783.75" cy="102.75" fill="#ADD1B2" rx="5.5" ry="5.5" style="stroke:#A80036;stroke-width:0.5;"/><path d="M784.75,101 Q784.8516,100.75 784.9688,100.625 Q785.0859,100.5 785.2188,100.5 Q785.4531,100.5 785.6016,100.6406 Q785.75,100.7813 785.75,101.1094 L785.75,101.8906 Q785.75,102.2188 785.6094,102.3594 Q785.4688,102.5 785.25,102.5 Q785.0547,102.5 784.9297,102.4141 Q784.8047,102.3281 784.75,102.1016 Q784.7266,101.9453 784.6406,101.8594 Q784.4844,101.6953 784.2031,101.6016 Q783.9219,101.5 783.6406,101.5 Q783.2891,101.5 782.9922,101.6406 Q782.7031,101.7813 782.4766,102.0938 Q782.25,102.4063 782.25,102.8359 L782.25,103.2969 Q782.25,103.8125 782.6719,104.1563 Q783.0938,104.5 783.8438,104.5 Q784.2891,104.5 784.6016,104.3984 Q784.7813,104.3438 784.9844,104.1641 Q785.1172,104.0625 785.1875,104.0313 Q785.2578,104 785.3438,104 Q785.5078,104 785.625,104.1328 Q785.75,104.2578 785.75,104.4375 Q785.75,104.6094 785.5781,104.8125 Q785.3281,105.1094 784.9297,105.2734 Q784.4063,105.5 783.7656,105.5 Q783.0156,105.5 782.4141,105.2031 Q781.9297,104.9688 781.5859,104.4609 Q781.25,103.9531 781.25,103.3516 L781.25,102.8047 Q781.25,102.1797 781.5469,101.6328 Q781.8516,101.0859 782.375,100.7969 Q782.9063,100.5 783.5,100.5 Q783.8594,100.5 784.1719,100.625 Q784.4844,100.75 784.75,101 Z " fill="#000000"/><text fill="#000000" font-family="sans-serif" font-size="6" lengthAdjust="spacing" textLength="47" x="790.75" y="105.2051">GameOverScene</text><line style="stroke:#A80036;stroke-width:0.75;" x1="776.75" x2="838.75" y1="110.75" y2="110.75"/><ellipse cx="781.75" cy="116.25" fill="#84BE84" rx="1.5" ry="1.5" style="stroke:#038048;stroke-width:0.5;"/><text fill="#000000" font-family="sans-serif" font-size="5.5" lengthAdjust="spacing" textLength="45.5" x="786.25" y="118.4595">GameOverScene()</text><ellipse cx="781.75" cy="123.168" fill="#84BE84" rx="1.5" ry="1.5" style="stroke:#038048;stroke-width:0.5;"/><text fill="#000000" font-family="sans-serif" font-size="5.5" lengthAdjust="spacing" textLength="29" x="786.25" y="125.3774">gameOver()</text><ellipse cx="781.75" cy="130.0859" fill="#84BE84" rx="1.5" ry="1.5" style="stroke:#038048;stroke-width:0.5;"/><text fill="#000000" font-family="sans-serif" font-size="5.5" lengthAdjust="spacing" textLength="27" x="786.25" y="132.2954">winGame()</text><ellipse cx="781.75" cy="137.0039" fill="#84BE84" rx="1.5" ry="1.5" style="stroke:#038048;stroke-width:0.5;"/><text fill="#000000" font-family="sans-serif" font-size="5.5" lengthAdjust="spacing" textLength="32" x="786.25" y="139.2134">moineGame()</text><!--MD5=[b62a023ea76c384a6267fe210e946aa9]
class MenuScene--><rect codeLine="65" fill="#FEFECE" filter="url(#f1831pooqwf2gm)" height="16" id="MenuScene" style="stroke:#A80036;stroke-width:0.75;" width="48.5" x="857" y="110.5"/><ellipse cx="864.5" cy="118.5" fill="#ADD1B2" rx="5.5" ry="5.5" style="stroke:#A80036;stroke-width:0.5;"/><path d="M865.5,116.75 Q865.6016,116.5 865.7188,116.375 Q865.8359,116.25 865.9688,116.25 Q866.2031,116.25 866.3516,116.3906 Q866.5,116.5313 866.5,116.8594 L866.5,117.6406 Q866.5,117.9688 866.3594,118.1094 Q866.2188,118.25 866,118.25 Q865.8047,118.25 865.6797,118.1641 Q865.5547,118.0781 865.5,117.8516 Q865.4766,117.6953 865.3906,117.6094 Q865.2344,117.4453 864.9531,117.3516 Q864.6719,117.25 864.3906,117.25 Q864.0391,117.25 863.7422,117.3906 Q863.4531,117.5313 863.2266,117.8438 Q863,118.1563 863,118.5859 L863,119.0469 Q863,119.5625 863.4219,119.9063 Q863.8438,120.25 864.5938,120.25 Q865.0391,120.25 865.3516,120.1484 Q865.5313,120.0938 865.7344,119.9141 Q865.8672,119.8125 865.9375,119.7813 Q866.0078,119.75 866.0938,119.75 Q866.2578,119.75 866.375,119.8828 Q866.5,120.0078 866.5,120.1875 Q866.5,120.3594 866.3281,120.5625 Q866.0781,120.8594 865.6797,121.0234 Q865.1563,121.25 864.5156,121.25 Q863.7656,121.25 863.1641,120.9531 Q862.6797,120.7188 862.3359,120.2109 Q862,119.7031 862,119.1016 L862,118.5547 Q862,117.9297 862.2969,117.3828 Q862.6016,116.8359 863.125,116.5469 Q863.6563,116.25 864.25,116.25 Q864.6094,116.25 864.9219,116.375 Q865.2344,116.5 865.5,116.75 Z " fill="#000000"/><text fill="#000000" font-family="sans-serif" font-size="6" lengthAdjust="spacing" textLength="32.5" x="871.5" y="120.9551">MenuScene</text><!--MD5=[19761c03807a17482b7a447f8ab2d67f]
class SecondGameScene--><rect codeLine="66" fill="#FEFECE" filter="url(#f1831pooqwf2gm)" height="37.8359" id="SecondGameScene" style="stroke:#A80036;stroke-width:0.75;" width="71.5" x="540" y="99.5"/><ellipse cx="547.5" cy="107.5" fill="#ADD1B2" rx="5.5" ry="5.5" style="stroke:#A80036;stroke-width:0.5;"/><path d="M548.5,105.75 Q548.6016,105.5 548.7188,105.375 Q548.8359,105.25 548.9688,105.25 Q549.2031,105.25 549.3516,105.3906 Q549.5,105.5313 549.5,105.8594 L549.5,106.6406 Q549.5,106.9688 549.3594,107.1094 Q549.2188,107.25 549,107.25 Q548.8047,107.25 548.6797,107.1641 Q548.5547,107.0781 548.5,106.8516 Q548.4766,106.6953 548.3906,106.6094 Q548.2344,106.4453 547.9531,106.3516 Q547.6719,106.25 547.3906,106.25 Q547.0391,106.25 546.7422,106.3906 Q546.4531,106.5313 546.2266,106.8438 Q546,107.1563 546,107.5859 L546,108.0469 Q546,108.5625 546.4219,108.9063 Q546.8438,109.25 547.5938,109.25 Q548.0391,109.25 548.3516,109.1484 Q548.5313,109.0938 548.7344,108.9141 Q548.8672,108.8125 548.9375,108.7813 Q549.0078,108.75 549.0938,108.75 Q549.2578,108.75 549.375,108.8828 Q549.5,109.0078 549.5,109.1875 Q549.5,109.3594 549.3281,109.5625 Q549.0781,109.8594 548.6797,110.0234 Q548.1563,110.25 547.5156,110.25 Q546.7656,110.25 546.1641,109.9531 Q545.6797,109.7188 545.3359,109.2109 Q545,108.7031 545,108.1016 L545,107.5547 Q545,106.9297 545.2969,106.3828 Q545.6016,105.8359 546.125,105.5469 Q546.6563,105.25 547.25,105.25 Q547.6094,105.25 547.9219,105.375 Q548.2344,105.5 548.5,105.75 Z " fill="#000000"/><text fill="#000000" font-family="sans-serif" font-size="6" lengthAdjust="spacing" textLength="55.5" x="554.5" y="109.9551">SecondGameScene</text><line style="stroke:#A80036;stroke-width:0.75;" x1="540.5" x2="611" y1="115.5" y2="115.5"/><rect fill="none" height="3" style="stroke:#C82930;stroke-width:0.5;" width="3" x="544" y="119.5"/><text fill="#000000" font-family="sans-serif" font-size="5.5" lengthAdjust="spacing" textLength="34.5" x="550" y="123.2095">player : Player</text><line style="stroke:#A80036;stroke-width:0.75;" x1="540.5" x2="611" y1="126.418" y2="126.418"/><ellipse cx="545.5" cy="131.918" fill="#84BE84" rx="1.5" ry="1.5" style="stroke:#038048;stroke-width:0.5;"/><text fill="#000000" font-family="sans-serif" font-size="5.5" lengthAdjust="spacing" textLength="52" x="550" y="134.1274">SecondGameScene()</text><!--MD5=[e82ee933db6281e804c2ab8ad5871a7c]
class ThirdGameScene--><rect codeLine="70" fill="#FEFECE" filter="url(#f1831pooqwf2gm)" height="72.4258" id="ThirdGameScene" style="stroke:#A80036;stroke-width:0.75;" width="64.5" x="458" y="82.25"/><ellipse cx="465.5" cy="90.25" fill="#ADD1B2" rx="5.5" ry="5.5" style="stroke:#A80036;stroke-width:0.5;"/><path d="M466.5,88.5 Q466.6016,88.25 466.7188,88.125 Q466.8359,88 466.9688,88 Q467.2031,88 467.3516,88.1406 Q467.5,88.2813 467.5,88.6094 L467.5,89.3906 Q467.5,89.7188 467.3594,89.8594 Q467.2188,90 467,90 Q466.8047,90 466.6797,89.9141 Q466.5547,89.8281 466.5,89.6016 Q466.4766,89.4453 466.3906,89.3594 Q466.2344,89.1953 465.9531,89.1016 Q465.6719,89 465.3906,89 Q465.0391,89 464.7422,89.1406 Q464.4531,89.2813 464.2266,89.5938 Q464,89.9063 464,90.3359 L464,90.7969 Q464,91.3125 464.4219,91.6563 Q464.8438,92 465.5938,92 Q466.0391,92 466.3516,91.8984 Q466.5313,91.8438 466.7344,91.6641 Q466.8672,91.5625 466.9375,91.5313 Q467.0078,91.5 467.0938,91.5 Q467.2578,91.5 467.375,91.6328 Q467.5,91.7578 467.5,91.9375 Q467.5,92.1094 467.3281,92.3125 Q467.0781,92.6094 466.6797,92.7734 Q466.1563,93 465.5156,93 Q464.7656,93 464.1641,92.7031 Q463.6797,92.4688 463.3359,91.9609 Q463,91.4531 463,90.8516 L463,90.3047 Q463,89.6797 463.2969,89.1328 Q463.6016,88.5859 464.125,88.2969 Q464.6563,88 465.25,88 Q465.6094,88 465.9219,88.125 Q466.2344,88.25 466.5,88.5 Z " fill="#000000"/><text fill="#000000" font-family="sans-serif" font-size="6" lengthAdjust="spacing" textLength="48.5" x="472.5" y="92.7051">ThirdGameScene</text><line style="stroke:#A80036;stroke-width:0.75;" x1="458.5" x2="522" y1="98.25" y2="98.25"/><rect fill="none" height="3" style="stroke:#C82930;stroke-width:0.5;" width="3" x="462" y="102.25"/><text fill="#000000" font-family="sans-serif" font-size="5.5" lengthAdjust="spacing" textLength="34.5" x="468" y="105.9595">player : Player</text><rect fill="none" height="3" style="stroke:#C82930;stroke-width:0.5;" width="3" x="462" y="109.168"/><text fill="#000000" font-family="sans-serif" font-size="5.5" lengthAdjust="spacing" textLength="20" x="468" y="112.8774">pnj1: Pnj</text><rect fill="none" height="3" style="stroke:#C82930;stroke-width:0.5;" width="3" x="462" y="116.0859"/><text fill="#000000" font-family="sans-serif" font-size="5.5" lengthAdjust="spacing" textLength="20" x="468" y="119.7954">pnj2: Pnj</text><rect fill="none" height="3" style="stroke:#C82930;stroke-width:0.5;" width="3" x="462" y="123.0039"/><text fill="#000000" font-family="sans-serif" font-size="5.5" lengthAdjust="spacing" textLength="20" x="468" y="126.7134">pnj3: Pnj</text><rect fill="none" height="3" style="stroke:#C82930;stroke-width:0.5;" width="3" x="462" y="129.9219"/><text fill="#000000" font-family="sans-serif" font-size="5.5" lengthAdjust="spacing" textLength="20" x="468" y="133.6313">pnj4: Pnj</text><rect fill="none" height="3" style="stroke:#C82930;stroke-width:0.5;" width="3" x="462" y="136.8398"/><text fill="#000000" font-family="sans-serif" font-size="5.5" lengthAdjust="spacing" textLength="20" x="468" y="140.5493">pnj5: Pnj</text><line style="stroke:#A80036;stroke-width:0.75;" x1="458.5" x2="522" y1="143.7578" y2="143.7578"/><ellipse cx="463.5" cy="149.2578" fill="#84BE84" rx="1.5" ry="1.5" style="stroke:#038048;stroke-width:0.5;"/><text fill="#000000" font-family="sans-serif" font-size="5.5" lengthAdjust="spacing" textLength="45.5" x="468" y="151.4673">ThirdGameScene()</text><!--MD5=[a3209c24f4c27b56fa81195921715673]
reverse link Phaser.Physics.Arcade.Sprite to Pnj--><path d="M326.75,136.835 C326.75,153.04 326.75,177.585 326.75,198.865 " fill="none" id="Phaser.Physics.Arcade.Sprite-backto-Pnj" style="stroke:#A80036;stroke-width:0.5;"/><polygon fill="none" points="323.25,136.68,326.75,126.68,330.25,136.68,323.25,136.68" style="stroke:#A80036;stroke-width:0.5;"/><!--MD5=[43b0df2cd0a62a636ee53a23d3283cbd]
reverse link Phaser.Physics.Arcade.Sprite to Bubble--><path d="M300.83,122.29 C260.975,128.885 185.755,147.79 152.25,199 C128.055,235.975 131.405,287.99 138.195,324.365 " fill="none" id="Phaser.Physics.Arcade.Sprite-backto-Bubble" style="stroke:#A80036;stroke-width:0.5;"/><polygon fill="none" points="300.315,118.825,310.725,120.785,301.365,125.745,300.315,118.825" style="stroke:#A80036;stroke-width:0.5;"/><!--MD5=[a9cafcbf288c6bed605f27d5bd4047d3]
reverse link Phaser.Physics.Arcade.Sprite to Player--><path d="M352.15,129.625 C386.42,144.195 449.12,171.695 500.75,199 C506.92,202.26 513.3,205.825 519.59,209.45 " fill="none" id="Phaser.Physics.Arcade.Sprite-backto-Player" style="stroke:#A80036;stroke-width:0.5;"/><polygon fill="none" points="350.715,132.82,342.87,125.7,353.445,126.37,350.715,132.82" style="stroke:#A80036;stroke-width:0.5;"/><!--MD5=[152ed510d5b4066b07284fec6e435521]
reverse link Phaser.GameObjects.Rectangle to HitBox--><path d="M731.25,136.68 C731.25,158.54 731.25,195.745 731.25,219.515 " fill="none" id="Phaser.GameObjects.Rectangle-backto-HitBox" style="stroke:#A80036;stroke-width:0.5;"/><polygon fill="none" points="727.75,136.68,731.25,126.68,734.75,136.68,727.75,136.68" style="stroke:#A80036;stroke-width:0.5;"/><!--MD5=[74ab0f2b34261a3b953a883286bd8fde]
reverse link Phaser.Scene to MainScene--><path d="M653.75,47.185 C653.75,53.455 653.75,60.85 653.75,68.46 " fill="none" id="Phaser.Scene-backto-MainScene" style="stroke:#A80036;stroke-width:0.5;"/><polygon fill="none" points="650.25,47.045,653.75,37.045,657.25,47.045,650.25,47.045" style="stroke:#A80036;stroke-width:0.5;"/><!--MD5=[382218cacb2eb37382af9ff821dba23a]
reverse link Phaser.Scene to GameOverScene--><path d="M680.345,35.43 C703.13,41.35 736.145,51.965 761.25,68.5 C771.935,75.535 781.915,85.5 789.87,94.645 " fill="none" id="Phaser.Scene-backto-GameOverScene" style="stroke:#A80036;stroke-width:0.5;"/><polygon fill="none" points="679.38,38.8,670.51,33.005,681.06,32,679.38,38.8" style="stroke:#A80036;stroke-width:0.5;"/><!--MD5=[22edd4d076fa99993bf4a126cb47e4ca]
reverse link Phaser.Scene to MenuScene--><path d="M680.655,32.33 C727.37,37.665 821.11,50.315 848.25,68.5 C863.78,78.905 873.845,99.34 878.41,110.425 " fill="none" id="Phaser.Scene-backto-MenuScene" style="stroke:#A80036;stroke-width:0.5;"/><polygon fill="none" points="680.2,35.805,670.645,31.22,680.97,28.845,680.2,35.805" style="stroke:#A80036;stroke-width:0.5;"/><!--MD5=[79ddb01dc000b5474efc1430e1cce8bb]
reverse link Phaser.Scene to SecondGameScene--><path d="M640.325,44.73 C626.95,59.905 606.405,83.22 592.09,99.46 " fill="none" id="Phaser.Scene-backto-SecondGameScene" style="stroke:#A80036;stroke-width:0.5;"/><polygon fill="none" points="637.86,42.235,647.1,37.045,643.115,46.86,637.86,42.235" style="stroke:#A80036;stroke-width:0.5;"/><!--MD5=[a56bb32b1b21735c3aa0a6f030ce7232]
reverse link Phaser.Scene to ThirdGameScene--><path d="M627.025,33.495 C600.84,38.4 560.68,48.64 531.25,68.5 C525.61,72.31 520.325,77.11 515.555,82.22 " fill="none" id="Phaser.Scene-backto-ThirdGameScene" style="stroke:#A80036;stroke-width:0.5;"/><polygon fill="none" points="626.54,30.03,636.99,31.76,627.74,36.925,626.54,30.03" style="stroke:#A80036;stroke-width:0.5;"/><!--MD5=[1126a63752f430f7e548032d7f8fd749]
link MainScene to Player--><path codeLine="79" d="M628.925,156.16 C618.055,172.435 605.375,191.42 594.72,207.365 " fill="none" id="MainScene-to-Player" style="stroke:#A80036;stroke-width:0.5;"/><polygon fill="#A80036" points="593.3,209.49,597.4665,206.8651,594.6917,207.4132,594.1436,204.6384,593.3,209.49" style="stroke:#A80036;stroke-width:0.5;"/><!--MD5=[dd8d713dea1d2ddf00e5e83f2e2566ff]
link MainScene to Pnj--><path codeLine="80" d="M628.835,161.095 C626.175,163.84 623.31,166.36 620.25,168.5 C618.705,169.58 559.55,184.415 494.755,200.455 " fill="none" id="MainScene-to-Pnj" style="stroke:#A80036;stroke-width:0.5;"/><polygon fill="#A80036" points="492.25,201.075,497.0989,201.934,494.6766,200.4737,496.1369,198.0514,492.25,201.075" style="stroke:#A80036;stroke-width:0.5;"/><!--MD5=[1fe7b2fee612e1d5f399281517698e21]
link MainScene to HitBox--><path codeLine="81" d="M678.59,158.345 C690.835,177.74 705.22,200.52 715.855,217.365 " fill="none" id="MainScene-to-HitBox" style="stroke:#A80036;stroke-width:0.5;"/><polygon fill="#A80036" points="717.265,219.6,716.5524,214.7274,715.9297,217.4864,713.1707,216.8638,717.265,219.6" style="stroke:#A80036;stroke-width:0.5;"/><!--MD5=[4e24f150aa02e6518a9414493ceffeef]
link SecondGameScene to Player--><path codeLine="82" d="M575.145,137.51 C574.55,155.825 573.62,184.31 572.885,206.88 " fill="none" id="SecondGameScene-to-Player" style="stroke:#A80036;stroke-width:0.5;"/><polygon fill="#A80036" points="572.8,209.465,574.9404,205.03,572.8785,206.9662,570.9423,204.9044,572.8,209.465" style="stroke:#A80036;stroke-width:0.5;"/><!--MD5=[bc2ec38f36c9399ca5152d88a1565eea]
link SecondGameScene to Pnj--><path codeLine="83" d="M562.71,137.565 C554.655,147.88 543.53,160.255 531.25,168.5 C514.44,179.785 495.685,189.56 476.54,197.96 " fill="none" id="SecondGameScene-to-Pnj" style="stroke:#A80036;stroke-width:0.5;"/><polygon fill="#A80036" points="474.205,198.98,479.1293,199.0086,476.4954,197.978,477.5261,195.344,474.205,198.98" style="stroke:#A80036;stroke-width:0.5;"/><!--MD5=[ac4fe461047394ce89c2b222d804f23a]
link SecondGameScene to HitBox--><path codeLine="84" d="M590.58,137.69 C598.785,147.435 609.48,159.225 620.25,168.5 C641.985,187.215 668.765,205.02 690.575,218.385 " fill="none" id="SecondGameScene-to-HitBox" style="stroke:#A80036;stroke-width:0.5;"/><polygon fill="#A80036" points="692.805,219.745,690.0109,215.69,690.6727,218.4399,687.9228,219.1017,692.805,219.745" style="stroke:#A80036;stroke-width:0.5;"/><!--MD5=[b6af7b4ebb96ae660edb280f11116bd4]
link ThirdGameScene to Player--><path codeLine="85" d="M514.04,154.835 C525.015,171.36 537.98,190.89 548.84,207.25 " fill="none" id="ThirdGameScene-to-Player" style="stroke:#A80036;stroke-width:0.5;"/><polygon fill="#A80036" points="550.29,209.43,549.4772,204.5731,548.9115,207.3444,546.1402,206.7787,550.29,209.43" style="stroke:#A80036;stroke-width:0.5;"/><!--MD5=[087a1bf2663db6e8213aba6b389c021c]
link ThirdGameScene to Pnj--><path codeLine="86" d="M457.95,143.25 C437.4,158.68 410.175,179.115 385.855,197.375 " fill="none" id="ThirdGameScene-to-Pnj" style="stroke:#A80036;stroke-width:0.5;"/><polygon fill="#A80036" points="383.81,198.91,388.61,197.81,385.81,197.41,386.21,194.61,383.81,198.91" style="stroke:#A80036;stroke-width:0.5;"/><!--MD5=[6a3ba56a1867e93ff080d546937784f4]
link ThirdGameScene to HitBox--><path codeLine="87" d="M515.3,154.86 C520.12,159.99 525.485,164.78 531.25,168.5 C574.42,196.355 594.64,180.975 642.75,199 C657.555,204.545 673.23,211.675 687.215,218.52 " fill="none" id="ThirdGameScene-to-HitBox" style="stroke:#A80036;stroke-width:0.5;"/><polygon fill="#A80036" points="689.625,219.705,686.4654,215.9278,687.3804,218.6042,684.7041,219.5191,689.625,219.705" style="stroke:#A80036;stroke-width:0.5;"/><!--MD5=[5c7a71042350efc9e4aa8241057a4bde]
link Pnj to Bubble--><path codeLine="88" d="M265.665,285.595 C248.465,297.66 229.72,310.805 212.4,322.955 " fill="none" id="Pnj-to-Bubble" style="stroke:#A80036;stroke-width:0.5;"/><polygon fill="#A80036" points="210.3,324.43,215.1317,323.4788,212.3454,322.9925,212.8317,320.2062,210.3,324.43" style="stroke:#A80036;stroke-width:0.5;"/><text fill="#000000" font-family="sans-serif" font-size="6.5" lengthAdjust="spacing" textLength="31.5" x="244.25" y="307.7476">instanciate</text><!--MD5=[b77bd2db7cddf29b08b20fb5afaf597a]
@startuml
hide empty members

class Pnj extends Phaser.Physics.Arcade.Sprite{
    - dialogText : String
    - scene : Phaser.Scene
    - choice : Boolean
    - w_type : int
    - d_type : String
    - player : Player

    + Pnj(scene: Phaser.Scene, x : int, y : int, texture : string, dialog : string, choice : Boolean, w_type : int, d_type : String, player : Player)
    + (static) loadAssets(scene: Phaser.Scene, type : String) : void
    + update() : void
}

class Bubble extends Phaser.Physics.Arcade.Sprite {
    - scene : Phaser.Scene
    - pnj : Pnj
    - isChoice : Boolean
    - scenario : int
    - death : String
    - player : Player

    + Bubble(scene: Phaser.Scene, pnj : Pnj, text : String, isChoice : Boolean, scenario : int, death : String, player : Player)
    + selectOption(option) : void
    + destroy() : void



}
class Player extends Phaser.Physics.Arcade.Sprite {
    - scene: Phaser.Scene
    + constructor(scene: Phaser.Scene, x: number,
    y: number texture: string, frame: string)
    + static loadAssets(scene: Phaser.Scene): void
    + move(dir: string): void
    + stop(): void
}
class HitBox extends Phaser.GameObjects.Rectangle
 {
  - scene: Phaser.Scene
  + constructor(scene: Phaser.Scene, x: number, y: number,
   width: number, height: number,color: number, alpha: number)
}

class MainScene extends Phaser.Scene {
  + MainScene()
  - player: Player
  - pnj: Pnj
  - pnj2: Pnj
  - pnj3: Pnj
  - pnj4: Pnj
  - pnj5: Pnj
  - hitBox: HitBox
  - hitBox2: HitBox
  - hitBox3: HitBox
  - hitBox4: HitBox
}
class GameOverScene extends Phaser.Scene{
  + GameOverScene()
  + gameOver()
  + winGame()
  + moineGame()
}
class MenuScene extends Phaser.Scene {}
class SecondGameScene extends Phaser.Scene{
  + SecondGameScene()
  - player : Player
}
class ThirdGameScene extends Phaser.Scene{
 + ThirdGameScene()
 - player : Player
 - pnj1: Pnj
 - pnj2: Pnj
 - pnj3: Pnj
 - pnj4: Pnj
 - pnj5: Pnj
}
MainScene - -> Player
MainScene - -> Pnj
MainScene - -> HitBox
SecondGameScene - -> Player
SecondGameScene - -> Pnj
SecondGameScene - -> HitBox
ThirdGameScene - -> Player
ThirdGameScene - -> Pnj
ThirdGameScene - -> HitBox
Pnj - -> Bubble : instanciate


@enduml

PlantUML version 1.2022.0(Tue Jan 11 17:16:42 CET 2022)
(GPL source distribution)
Java Runtime: OpenJDK Runtime Environment
JVM: OpenJDK 64-Bit Server VM
Default Encoding: Cp1252
Language: fr
Country: FR
--></g></svg>